<?xml version="1.0" encoding="iso-8859-1"?>
<!-- Generator: Adobe Illustrator 17.1.0, SVG Export Plug-In . SVG Version: 6.00 Build 0)  -->
<!DOCTYPE svg PUBLIC "-//W3C//DTD SVG 1.1//EN" "http://www.w3.org/Graphics/SVG/1.1/DTD/svg11.dtd">
<svg version="1.1" id="Capa_1" xmlns="http://www.w3.org/2000/svg" xmlns:xlink="http://www.w3.org/1999/xlink" x="0px" y="0px"
	 viewBox="0 0 198.333 198.333" style="enable-background:new 0 0 198.333 198.333;" xml:space="preserve">
<path style="fill:#000002;" d="M195.833,187.434H2.5c-1.381,0-2.5-1.119-2.5-2.5v-58.34c0-0.948,0.536-1.814,1.384-2.237
	l48.333-24.11c0.774-0.387,1.695-0.345,2.431,0.111s1.185,1.26,1.185,2.126v20.069l44.717-22.307
	c0.774-0.387,1.694-0.345,2.431,0.111c0.736,0.456,1.185,1.26,1.185,2.126v20.069l12.444-6.207V54.916c0-1.381,1.119-2.5,2.5-2.5
	h9.074c1.381,0,2.5,1.119,2.5,2.5v54.41l11.805-5.889l2.079-90.096c0.032-1.358,1.141-2.442,2.5-2.442h21.797
	c1.358,0,2.468,1.084,2.5,2.442l2.277,98.666l23.576-11.761c0.774-0.387,1.694-0.345,2.431,0.111
	c0.736,0.456,1.185,1.26,1.185,2.126v82.45C198.333,186.315,197.214,187.434,195.833,187.434z M5,182.434h188.333v-75.909
	l-44.718,22.307c-0.366,0.183-0.747,0.264-1.16,0.263c-0.449-0.008-0.944-0.117-1.36-0.374c-0.736-0.456-1.185-1.26-1.185-2.126
	v-20.025l-18.087,9.022c-0.017,0.009-0.033,0.017-0.049,0.025l-9.039,4.509c-0.007,0.003-0.014,0.007-0.021,0.011l-17.432,8.695
	c-0.775,0.387-1.694,0.346-2.431-0.111c-0.736-0.456-1.185-1.26-1.185-2.126v-20.069l-44.717,22.307
	c-0.775,0.387-1.694,0.346-2.431-0.111c-0.736-0.456-1.185-1.26-1.185-2.126v-20.069L5,128.141V182.434z M147.5,99.984
	c0.458,0,0.914,0.125,1.315,0.374c0.736,0.456,1.185,1.26,1.185,2.126v20.025l16.196-8.079l-2.273-98.531h-16.912l-1.96,84.969
	l1.245-0.621c0.365-0.183,0.769-0.271,1.16-0.263C147.47,99.984,147.485,99.984,147.5,99.984z M119.11,57.416v56.437l4.074-2.032
	V57.416H119.11z M106.344,170.06h-9.511c-1.381,0-2.5-1.119-2.5-2.5v-14.147c0-1.381,1.119-2.5,2.5-2.5h9.511
	c1.381,0,2.5,1.119,2.5,2.5v14.147C108.844,168.941,107.725,170.06,106.344,170.06z M99.333,165.06h4.511v-9.147h-4.511V165.06z
	 M86.134,170.06h-9.511c-1.381,0-2.5-1.119-2.5-2.5v-14.147c0-1.381,1.119-2.5,2.5-2.5h9.511c1.381,0,2.5,1.119,2.5,2.5v14.147
	C88.634,168.941,87.515,170.06,86.134,170.06z M79.124,165.06h4.511v-9.147h-4.511V165.06z M65.924,170.06h-9.51
	c-1.381,0-2.5-1.119-2.5-2.5v-14.147c0-1.381,1.119-2.5,2.5-2.5h9.51c1.381,0,2.5,1.119,2.5,2.5v14.147
	C68.424,168.941,67.305,170.06,65.924,170.06z M58.914,165.06h4.51v-9.147h-4.51V165.06z M45.715,170.06h-9.51
	c-1.381,0-2.5-1.119-2.5-2.5v-14.147c0-1.381,1.119-2.5,2.5-2.5h9.51c1.381,0,2.5,1.119,2.5,2.5v14.147
	C48.215,168.941,47.096,170.06,45.715,170.06z M38.705,165.06h4.51v-9.147h-4.51V165.06z M25.505,170.06h-9.51
	c-1.381,0-2.5-1.119-2.5-2.5v-14.147c0-1.381,1.119-2.5,2.5-2.5h9.51c1.381,0,2.5,1.119,2.5,2.5v14.147
	C28.005,168.941,26.886,170.06,25.505,170.06z M18.495,165.06h4.51v-9.147h-4.51V165.06z"/>
<g>
</g>
<g>
</g>
<g>
</g>
<g>
</g>
<g>
</g>
<g>
</g>
<g>
</g>
<g>
</g>
<g>
</g>
<g>
</g>
<g>
</g>
<g>
</g>
<g>
</g>
<g>
</g>
<g>
</g>
</svg>
